<mxfile host="65bd71144e" pages="2">
    <diagram id="cxnEje1horbJYmb97XGU" name="Page-1">
        <mxGraphModel dx="1179" dy="1759" grid="1" gridSize="10" guides="1" tooltips="1" connect="1" arrows="1" fold="1" page="0" pageScale="1" pageWidth="850" pageHeight="1100" background="#000000" math="0" shadow="0">
            <root>
                <mxCell id="0"/>
                <mxCell id="1" parent="0"/>
                <mxCell id="4" value="&lt;u&gt;LIBRARY-MANAGEMENT-SYSTEM UML CLASS DIAGRAM&amp;nbsp;&lt;/u&gt;" style="text;strokeColor=none;fillColor=none;html=1;fontSize=24;fontStyle=1;verticalAlign=middle;align=center;labelBackgroundColor=#F2D6CE;fontColor=#000000;" parent="1" vertex="1">
                    <mxGeometry x="380" y="-970" width="130" height="60" as="geometry"/>
                </mxCell>
                <mxCell id="5" value="BOOK" style="swimlane;fontStyle=1;align=center;verticalAlign=top;childLayout=stackLayout;horizontal=1;startSize=26;horizontalStack=0;resizeParent=1;resizeParentMax=0;resizeLast=0;collapsible=1;marginBottom=0;labelBackgroundColor=none;fontColor=#A75F37;" parent="1" vertex="1">
                    <mxGeometry x="350" y="-750" width="160" height="210" as="geometry">
                        <mxRectangle x="350" y="-750" width="80" height="30" as="alternateBounds"/>
                    </mxGeometry>
                </mxCell>
                <mxCell id="6" value="-ISBN:String&#10;-title:String&#10;-author:String&#10;-publisher:String&#10;-publication_year:int&#10;-genre:String&#10;-numberofcopies:int&#10;&#10;-" style="text;strokeColor=none;fillColor=none;align=left;verticalAlign=top;spacingLeft=4;spacingRight=4;overflow=hidden;rotatable=0;points=[[0,0.5],[1,0.5]];portConstraint=eastwest;labelBackgroundColor=#000000;fontColor=#66FF66;fontFamily=Verdana;fontSize=12;" parent="5" vertex="1">
                    <mxGeometry y="26" width="160" height="124" as="geometry"/>
                </mxCell>
                <mxCell id="7" value="" style="line;strokeWidth=1;fillColor=none;align=left;verticalAlign=middle;spacingTop=-1;spacingLeft=3;spacingRight=3;rotatable=0;labelPosition=right;points=[];portConstraint=eastwest;strokeColor=inherit;labelBackgroundColor=#F2D6CE;fontColor=#000000;" parent="5" vertex="1">
                    <mxGeometry y="150" width="160" height="8" as="geometry"/>
                </mxCell>
                <mxCell id="8" value="+getDetailes():String&#10;+checkAvailability():boolean" style="text;strokeColor=none;fillColor=none;align=left;verticalAlign=top;spacingLeft=4;spacingRight=4;overflow=hidden;rotatable=0;points=[[0,0.5],[1,0.5]];portConstraint=eastwest;labelBackgroundColor=#000000;fontColor=#FF66FF;fontFamily=Verdana;" parent="5" vertex="1">
                    <mxGeometry y="158" width="160" height="52" as="geometry"/>
                </mxCell>
                <mxCell id="9" value="&lt;&lt;Users&gt;&gt;" style="swimlane;fontStyle=1;align=center;verticalAlign=top;childLayout=stackLayout;horizontal=1;startSize=26;horizontalStack=0;resizeParent=1;resizeParentMax=0;resizeLast=0;collapsible=1;marginBottom=0;labelBackgroundColor=none;fontFamily=Verdana;fontSize=12;fontColor=#A75F37;" parent="1" vertex="1">
                    <mxGeometry x="-140" y="-840" width="160" height="170" as="geometry">
                        <mxRectangle x="-140" y="-840" width="70" height="30" as="alternateBounds"/>
                    </mxGeometry>
                </mxCell>
                <mxCell id="10" value="-userid:int&#10;-user_name:String&#10;-adrress:String&#10;contact:int&#10;" style="text;strokeColor=none;fillColor=none;align=left;verticalAlign=top;spacingLeft=4;spacingRight=4;overflow=hidden;rotatable=0;points=[[0,0.5],[1,0.5]];portConstraint=eastwest;labelBackgroundColor=none;fontFamily=Verdana;fontSize=12;fontColor=#66FF66;" parent="9" vertex="1">
                    <mxGeometry y="26" width="160" height="64" as="geometry"/>
                </mxCell>
                <mxCell id="11" value="" style="line;strokeWidth=1;fillColor=none;align=left;verticalAlign=middle;spacingTop=-1;spacingLeft=3;spacingRight=3;rotatable=0;labelPosition=right;points=[];portConstraint=eastwest;strokeColor=inherit;labelBackgroundColor=none;fontFamily=Times New Roman;fontSize=12;fontColor=#7A958F;" parent="9" vertex="1">
                    <mxGeometry y="90" width="160" height="8" as="geometry"/>
                </mxCell>
                <mxCell id="12" value="+ getUserid(): int&#10;+getUser_name:String&#10;+getAddress:String&#10;+getContact:int&#10;" style="text;strokeColor=none;fillColor=none;align=left;verticalAlign=top;spacingLeft=4;spacingRight=4;overflow=hidden;rotatable=0;points=[[0,0.5],[1,0.5]];portConstraint=eastwest;labelBackgroundColor=none;fontFamily=Verdana;fontSize=12;fontColor=#FF66FF;" parent="9" vertex="1">
                    <mxGeometry y="98" width="160" height="72" as="geometry"/>
                </mxCell>
                <mxCell id="43" style="edgeStyle=none;html=1;exitX=0.5;exitY=0;exitDx=0;exitDy=0;entryX=1;entryY=0.059;entryDx=0;entryDy=0;entryPerimeter=0;fontFamily=Verdana;fontSize=12;fontColor=#FF66FF;" parent="1" source="13" target="9" edge="1">
                    <mxGeometry relative="1" as="geometry">
                        <Array as="points">
                            <mxPoint x="80" y="-838"/>
                        </Array>
                    </mxGeometry>
                </mxCell>
                <mxCell id="13" value="Members" style="swimlane;fontStyle=1;align=center;verticalAlign=top;childLayout=stackLayout;horizontal=1;startSize=26;horizontalStack=0;resizeParent=1;resizeParentMax=0;resizeLast=0;collapsible=1;marginBottom=0;labelBackgroundColor=none;fontFamily=Verdana;fontSize=12;fontColor=#A75F37;" parent="1" vertex="1">
                    <mxGeometry x="-40" y="-510" width="240" height="220" as="geometry">
                        <mxRectangle x="-20" y="-510" width="100" height="30" as="alternateBounds"/>
                    </mxGeometry>
                </mxCell>
                <mxCell id="14" value="-membershipType:String&#10;-dateofMembership:String" style="text;strokeColor=none;fillColor=none;align=left;verticalAlign=top;spacingLeft=4;spacingRight=4;overflow=hidden;rotatable=0;points=[[0,0.5],[1,0.5]];portConstraint=eastwest;labelBackgroundColor=none;fontFamily=Verdana;fontSize=12;fontColor=#66FF66;" parent="13" vertex="1">
                    <mxGeometry y="26" width="240" height="54" as="geometry"/>
                </mxCell>
                <mxCell id="15" value="" style="line;strokeWidth=1;fillColor=none;align=left;verticalAlign=middle;spacingTop=-1;spacingLeft=3;spacingRight=3;rotatable=0;labelPosition=right;points=[];portConstraint=eastwest;strokeColor=inherit;labelBackgroundColor=none;fontFamily=Verdana;fontSize=12;fontColor=#66FF66;" parent="13" vertex="1">
                    <mxGeometry y="80" width="240" height="8" as="geometry"/>
                </mxCell>
                <mxCell id="16" value="+getMembershipType():String&#10;+getMembershipdate():int&#10;+setMembershipType(String Type):void&#10;+setMembershipdate(int date):void&#10;+borrowBook(book:Book):void&#10;+returnBook(book:Book):void&#10;+reserveBook(book:Book):void&#10;" style="text;strokeColor=none;fillColor=none;align=left;verticalAlign=top;spacingLeft=4;spacingRight=4;overflow=hidden;rotatable=0;points=[[0,0.5],[1,0.5]];portConstraint=eastwest;labelBackgroundColor=none;fontFamily=Verdana;fontSize=12;fontColor=#FF66FF;" parent="13" vertex="1">
                    <mxGeometry y="88" width="240" height="132" as="geometry"/>
                </mxCell>
                <mxCell id="44" style="edgeStyle=none;html=1;exitX=0.5;exitY=0;exitDx=0;exitDy=0;entryX=-0.025;entryY=0.082;entryDx=0;entryDy=0;entryPerimeter=0;fontFamily=Verdana;fontSize=12;fontColor=#FF66FF;" parent="1" source="17" target="9" edge="1">
                    <mxGeometry relative="1" as="geometry">
                        <Array as="points">
                            <mxPoint x="-180" y="-838"/>
                        </Array>
                    </mxGeometry>
                </mxCell>
                <mxCell id="17" value="LIBRAN" style="swimlane;fontStyle=1;align=center;verticalAlign=top;childLayout=stackLayout;horizontal=1;startSize=26;horizontalStack=0;resizeParent=1;resizeParentMax=0;resizeLast=0;collapsible=1;marginBottom=0;labelBackgroundColor=none;fontFamily=Verdana;fontSize=12;fontColor=#A75F37;" parent="1" vertex="1">
                    <mxGeometry x="-290" y="-510" width="230" height="230" as="geometry">
                        <mxRectangle x="-200" y="-510" width="90" height="30" as="alternateBounds"/>
                    </mxGeometry>
                </mxCell>
                <mxCell id="18" value="-role:String&#10;-password:String" style="text;strokeColor=none;fillColor=none;align=left;verticalAlign=top;spacingLeft=4;spacingRight=4;overflow=hidden;rotatable=0;points=[[0,0.5],[1,0.5]];portConstraint=eastwest;labelBackgroundColor=none;fontFamily=Verdana;fontSize=12;fontColor=#66FF66;" parent="17" vertex="1">
                    <mxGeometry y="26" width="230" height="54" as="geometry"/>
                </mxCell>
                <mxCell id="19" value="" style="line;strokeWidth=1;fillColor=none;align=left;verticalAlign=middle;spacingTop=-1;spacingLeft=3;spacingRight=3;rotatable=0;labelPosition=right;points=[];portConstraint=eastwest;strokeColor=inherit;labelBackgroundColor=none;fontFamily=Verdana;fontSize=12;fontColor=#FF66FF;" parent="17" vertex="1">
                    <mxGeometry y="80" width="230" height="8" as="geometry"/>
                </mxCell>
                <mxCell id="20" value="+getRole():String&#10;+getPassword():String&#10;+setRole(String password):void&#10;+setPassword(String password):void&#10;+addBook(book:Book):void&#10;+remove(book:Book):void&#10;+registerMember(member:Member):void&#10;+processTransaction(transaction:Transaction:void)" style="text;strokeColor=none;fillColor=none;align=left;verticalAlign=top;spacingLeft=4;spacingRight=4;overflow=hidden;rotatable=0;points=[[0,0.5],[1,0.5]];portConstraint=eastwest;labelBackgroundColor=none;fontFamily=Verdana;fontSize=12;fontColor=#FF66FF;" parent="17" vertex="1">
                    <mxGeometry y="88" width="230" height="142" as="geometry"/>
                </mxCell>
                <mxCell id="23" value="TRANSACTION" style="swimlane;fontStyle=1;align=center;verticalAlign=top;childLayout=stackLayout;horizontal=1;startSize=26;horizontalStack=0;resizeParent=1;resizeParentMax=0;resizeLast=0;collapsible=1;marginBottom=0;labelBackgroundColor=none;fontFamily=Verdana;fontSize=12;fontColor=#A75F37;" parent="1" vertex="1">
                    <mxGeometry x="600" y="-510" width="160" height="184" as="geometry">
                        <mxRectangle x="590" y="-570" width="140" height="30" as="alternateBounds"/>
                    </mxGeometry>
                </mxCell>
                <mxCell id="24" value="-transactionId :int&#10;-memberId:int&#10;-bookId:int&#10;-issueDate:int&#10;-dueDate:int&#10;-returnDate:int&#10;fineAmount:double" style="text;strokeColor=none;fillColor=none;align=left;verticalAlign=top;spacingLeft=4;spacingRight=4;overflow=hidden;rotatable=0;points=[[0,0.5],[1,0.5]];portConstraint=eastwest;labelBackgroundColor=none;fontFamily=Verdana;fontSize=12;fontColor=#66FF66;" parent="23" vertex="1">
                    <mxGeometry y="26" width="160" height="124" as="geometry"/>
                </mxCell>
                <mxCell id="25" value="" style="line;strokeWidth=1;fillColor=none;align=left;verticalAlign=middle;spacingTop=-1;spacingLeft=3;spacingRight=3;rotatable=0;labelPosition=right;points=[];portConstraint=eastwest;strokeColor=inherit;labelBackgroundColor=none;fontFamily=Verdana;fontSize=12;fontColor=#66FF66;" parent="23" vertex="1">
                    <mxGeometry y="150" width="160" height="8" as="geometry"/>
                </mxCell>
                <mxCell id="26" value="+calculateFine():double" style="text;strokeColor=none;fillColor=none;align=left;verticalAlign=top;spacingLeft=4;spacingRight=4;overflow=hidden;rotatable=0;points=[[0,0.5],[1,0.5]];portConstraint=eastwest;labelBackgroundColor=none;fontFamily=Verdana;fontSize=12;fontColor=#FF66FF;" parent="23" vertex="1">
                    <mxGeometry y="158" width="160" height="26" as="geometry"/>
                </mxCell>
                <mxCell id="27" value="RESERVATION" style="swimlane;fontStyle=1;align=center;verticalAlign=top;childLayout=stackLayout;horizontal=1;startSize=26;horizontalStack=0;resizeParent=1;resizeParentMax=0;resizeLast=0;collapsible=1;marginBottom=0;labelBackgroundColor=none;fontFamily=Verdana;fontSize=12;fontColor=#A75F37;" parent="1" vertex="1">
                    <mxGeometry x="260" y="-500" width="160" height="154" as="geometry">
                        <mxRectangle x="260" y="-500" width="140" height="30" as="alternateBounds"/>
                    </mxGeometry>
                </mxCell>
                <mxCell id="28" value="-reservationId:int&#10;-memberId:int&#10;-bookId:int&#10;-reservationDate:int&#10;-status:String" style="text;strokeColor=none;fillColor=none;align=left;verticalAlign=top;spacingLeft=4;spacingRight=4;overflow=hidden;rotatable=0;points=[[0,0.5],[1,0.5]];portConstraint=eastwest;labelBackgroundColor=none;fontFamily=Verdana;fontSize=12;fontColor=#66FF66;" parent="27" vertex="1">
                    <mxGeometry y="26" width="160" height="94" as="geometry"/>
                </mxCell>
                <mxCell id="29" value="" style="line;strokeWidth=1;fillColor=none;align=left;verticalAlign=middle;spacingTop=-1;spacingLeft=3;spacingRight=3;rotatable=0;labelPosition=right;points=[];portConstraint=eastwest;strokeColor=inherit;labelBackgroundColor=none;fontFamily=Verdana;fontSize=12;fontColor=#FF66FF;" parent="27" vertex="1">
                    <mxGeometry y="120" width="160" height="8" as="geometry"/>
                </mxCell>
                <mxCell id="30" value="-checkStatus():String" style="text;strokeColor=none;fillColor=none;align=left;verticalAlign=top;spacingLeft=4;spacingRight=4;overflow=hidden;rotatable=0;points=[[0,0.5],[1,0.5]];portConstraint=eastwest;labelBackgroundColor=none;fontFamily=Verdana;fontSize=12;fontColor=#FF66FF;" parent="27" vertex="1">
                    <mxGeometry y="128" width="160" height="26" as="geometry"/>
                </mxCell>
                <mxCell id="31" value="NOTIFICATION" style="swimlane;fontStyle=1;align=center;verticalAlign=top;childLayout=stackLayout;horizontal=1;startSize=26;horizontalStack=0;resizeParent=1;resizeParentMax=0;resizeLast=0;collapsible=1;marginBottom=0;labelBackgroundColor=none;fontFamily=Verdana;fontSize=12;fontColor=#A75F37;" parent="1" vertex="1">
                    <mxGeometry x="390" y="-190" width="160" height="134" as="geometry">
                        <mxRectangle x="510" y="-340" width="140" height="30" as="alternateBounds"/>
                    </mxGeometry>
                </mxCell>
                <mxCell id="32" value="-notificationId:int&#10;-userId:int&#10;-Date:int&#10;-content:String" style="text;strokeColor=none;fillColor=none;align=left;verticalAlign=top;spacingLeft=4;spacingRight=4;overflow=hidden;rotatable=0;points=[[0,0.5],[1,0.5]];portConstraint=eastwest;labelBackgroundColor=none;fontFamily=Verdana;fontSize=12;fontColor=#66FF66;" parent="31" vertex="1">
                    <mxGeometry y="26" width="160" height="74" as="geometry"/>
                </mxCell>
                <mxCell id="33" value="" style="line;strokeWidth=1;fillColor=none;align=left;verticalAlign=middle;spacingTop=-1;spacingLeft=3;spacingRight=3;rotatable=0;labelPosition=right;points=[];portConstraint=eastwest;strokeColor=inherit;labelBackgroundColor=none;fontFamily=Verdana;fontSize=12;fontColor=#66FF66;" parent="31" vertex="1">
                    <mxGeometry y="100" width="160" height="8" as="geometry"/>
                </mxCell>
                <mxCell id="34" value="+sendNotification():void" style="text;strokeColor=none;fillColor=none;align=left;verticalAlign=top;spacingLeft=4;spacingRight=4;overflow=hidden;rotatable=0;points=[[0,0.5],[1,0.5]];portConstraint=eastwest;labelBackgroundColor=none;fontFamily=Verdana;fontSize=12;fontColor=#FF66FF;" parent="31" vertex="1">
                    <mxGeometry y="108" width="160" height="26" as="geometry"/>
                </mxCell>
                <mxCell id="35" value="COMPLAINS" style="swimlane;fontStyle=1;align=center;verticalAlign=top;childLayout=stackLayout;horizontal=1;startSize=30;horizontalStack=0;resizeParent=1;resizeParentMax=0;resizeLast=0;collapsible=1;marginBottom=0;labelBackgroundColor=none;fontFamily=Verdana;fontSize=12;fontColor=#A75F37;" parent="1" vertex="1">
                    <mxGeometry x="120" y="-210" width="160" height="190" as="geometry">
                        <mxRectangle x="180" y="-350" width="120" height="30" as="alternateBounds"/>
                    </mxGeometry>
                </mxCell>
                <mxCell id="36" value="-complainsId:int&#10;-memberid:int&#10;-description:String&#10;-Date:int&#10;-status:String" style="text;strokeColor=none;fillColor=none;align=left;verticalAlign=top;spacingLeft=4;spacingRight=4;overflow=hidden;rotatable=0;points=[[0,0.5],[1,0.5]];portConstraint=eastwest;labelBackgroundColor=none;fontFamily=Verdana;fontSize=12;fontColor=#66FF66;" parent="35" vertex="1">
                    <mxGeometry y="30" width="160" height="100" as="geometry"/>
                </mxCell>
                <mxCell id="37" value="" style="line;strokeWidth=1;fillColor=none;align=left;verticalAlign=middle;spacingTop=-1;spacingLeft=3;spacingRight=3;rotatable=0;labelPosition=right;points=[];portConstraint=eastwest;strokeColor=inherit;labelBackgroundColor=none;fontFamily=Verdana;fontSize=12;fontColor=#FF66FF;" parent="35" vertex="1">
                    <mxGeometry y="130" width="160" height="8" as="geometry"/>
                </mxCell>
                <mxCell id="38" value="+resolveComplain():void&#10;+FileComplain():void" style="text;strokeColor=none;fillColor=none;align=left;verticalAlign=top;spacingLeft=4;spacingRight=4;overflow=hidden;rotatable=0;points=[[0,0.5],[1,0.5]];portConstraint=eastwest;labelBackgroundColor=none;fontFamily=Verdana;fontSize=12;fontColor=#FF66FF;" parent="35" vertex="1">
                    <mxGeometry y="138" width="160" height="52" as="geometry"/>
                </mxCell>
                <mxCell id="46" value="" style="triangle;aspect=fixed;fillColor=strokeColor;labelBackgroundColor=#000000;fontFamily=Verdana;fontSize=12;fontColor=#FF66FF;" parent="1" vertex="1">
                    <mxGeometry x="245" y="-540" width="6" height="12" as="geometry"/>
                </mxCell>
                <mxCell id="47" value="" style="endArrow=none;html=1;rounded=0;align=center;verticalAlign=bottom;labelBackgroundColor=none;fontFamily=Verdana;fontSize=12;fontColor=#FF66FF;entryX=0.363;entryY=0;entryDx=0;entryDy=0;entryPerimeter=0;" parent="1" source="27" edge="1">
                    <mxGeometry relative="1" as="geometry">
                        <mxPoint x="230" y="-480" as="sourcePoint"/>
                        <mxPoint x="369.03999999999996" y="-730" as="targetPoint"/>
                        <Array as="points">
                            <mxPoint x="240" y="-485"/>
                            <mxPoint x="240" y="-730"/>
                        </Array>
                    </mxGeometry>
                </mxCell>
                <mxCell id="50" value="" style="endArrow=none;html=1;rounded=0;align=center;verticalAlign=bottom;labelBackgroundColor=none;fontFamily=Verdana;fontSize=12;fontColor=#FF66FF;entryX=1.025;entryY=0.086;entryDx=0;entryDy=0;entryPerimeter=0;exitX=0.019;exitY=-0.008;exitDx=0;exitDy=0;exitPerimeter=0;" parent="1" source="24" target="5" edge="1">
                    <mxGeometry relative="1" as="geometry">
                        <mxPoint x="580" y="-550" as="sourcePoint"/>
                        <mxPoint x="379.03999999999996" y="-720" as="targetPoint"/>
                        <Array as="points">
                            <mxPoint x="590" y="-480"/>
                            <mxPoint x="530" y="-480"/>
                            <mxPoint x="530" y="-732"/>
                        </Array>
                    </mxGeometry>
                </mxCell>
                <mxCell id="52" value="" style="endArrow=none;html=1;rounded=0;align=center;verticalAlign=bottom;labelBackgroundColor=none;fontFamily=Verdana;fontSize=12;fontColor=#FF66FF;entryX=1.014;entryY=0.112;entryDx=0;entryDy=0;entryPerimeter=0;edgeStyle=orthogonalEdgeStyle;exitX=0.063;exitY=0.255;exitDx=0;exitDy=0;exitPerimeter=0;" edge="1" parent="1" source="28" target="16">
                    <mxGeometry relative="1" as="geometry">
                        <mxPoint x="300" y="-310" as="sourcePoint"/>
                        <mxPoint x="379.03999999999974" y="-720" as="targetPoint"/>
                    </mxGeometry>
                </mxCell>
                <mxCell id="54" value="" style="endArrow=none;html=1;rounded=0;align=center;verticalAlign=bottom;labelBackgroundColor=none;fontFamily=Verdana;fontSize=12;fontColor=#FF66FF;edgeStyle=orthogonalEdgeStyle;entryX=1.014;entryY=0.762;entryDx=0;entryDy=0;entryPerimeter=0;exitX=-0.016;exitY=0.885;exitDx=0;exitDy=0;exitPerimeter=0;" edge="1" parent="1" source="24" target="16">
                    <mxGeometry relative="1" as="geometry">
                        <mxPoint x="550" y="-360" as="sourcePoint"/>
                        <mxPoint x="230" y="-320" as="targetPoint"/>
                        <Array as="points">
                            <mxPoint x="550" y="-374"/>
                            <mxPoint x="550" y="-280"/>
                            <mxPoint x="280" y="-280"/>
                            <mxPoint x="280" y="-320"/>
                            <mxPoint x="230" y="-320"/>
                            <mxPoint x="230" y="-321"/>
                        </Array>
                    </mxGeometry>
                </mxCell>
                <mxCell id="55" value="" style="endArrow=none;html=1;rounded=0;align=center;verticalAlign=bottom;labelBackgroundColor=none;fontFamily=Verdana;fontSize=12;fontColor=#FF66FF;edgeStyle=orthogonalEdgeStyle;entryX=0.2;entryY=0.994;entryDx=0;entryDy=0;entryPerimeter=0;" edge="1" parent="1" source="35" target="16">
                    <mxGeometry relative="1" as="geometry">
                        <mxPoint x="80" y="-240" as="sourcePoint"/>
                        <mxPoint x="13" y="-270" as="targetPoint"/>
                        <Array as="points">
                            <mxPoint x="8" y="-115"/>
                            <mxPoint x="8" y="-250"/>
                            <mxPoint x="10" y="-250"/>
                            <mxPoint x="10" y="-284"/>
                            <mxPoint x="8" y="-284"/>
                        </Array>
                    </mxGeometry>
                </mxCell>
                <mxCell id="56" value="" style="endArrow=none;html=1;rounded=0;align=center;verticalAlign=bottom;labelBackgroundColor=none;fontFamily=Verdana;fontSize=12;fontColor=#FF66FF;edgeStyle=orthogonalEdgeStyle;entryX=0.666;entryY=1.03;entryDx=0;entryDy=0;entryPerimeter=0;exitX=0.039;exitY=0.02;exitDx=0;exitDy=0;exitPerimeter=0;" edge="1" parent="1" source="32" target="16">
                    <mxGeometry relative="1" as="geometry">
                        <mxPoint x="360" y="-160" as="sourcePoint"/>
                        <mxPoint x="120" y="-240" as="targetPoint"/>
                        <Array as="points">
                            <mxPoint x="396" y="-160"/>
                            <mxPoint x="308" y="-160"/>
                            <mxPoint x="308" y="-240"/>
                            <mxPoint x="120" y="-240"/>
                        </Array>
                    </mxGeometry>
                </mxCell>
            </root>
        </mxGraphModel>
    </diagram>
    <diagram name="Copy of Page-1" id="JPiiol2TtpM2276D-2oZ">
        <mxGraphModel dx="324" dy="400" grid="1" gridSize="10" guides="1" tooltips="1" connect="1" arrows="1" fold="1" page="1" pageScale="1" pageWidth="850" pageHeight="1100" math="0" shadow="0">
            <root>
                <mxCell id="BqlHLvHAioupPKsAYrLP-0"/>
                <mxCell id="BqlHLvHAioupPKsAYrLP-1" parent="BqlHLvHAioupPKsAYrLP-0"/>
            </root>
        </mxGraphModel>
    </diagram>
</mxfile>